<svg xmlns="http://www.w3.org/2000/svg" width="19.275" height="16.791" viewBox="0 0 19.275 16.791">
  <g id="email" transform="translate(18.005 -183.535)">
    <g id="Group_3" data-name="Group 3" transform="translate(-18 183.532)">
      <path id="Path_2" data-name="Path 2" d="M16.883,78.032H2.382A2.1,2.1,0,0,0,.5,80.281v11.3a2.1,2.1,0,0,0,1.885,2.249h14.5a2.1,2.1,0,0,0,1.885-2.249v-11.3A2.1,2.1,0,0,0,16.883,78.032Zm-.621,1.657-6.2,5.863a.607.607,0,0,1-.863,0L3,79.689Zm1.118,11.889a.551.551,0,0,1-.5.592H2.382a.551.551,0,0,1-.5-.592V80.746l6.451,6.1a1.827,1.827,0,0,0,2.59,0l6.451-6.1V91.577Z" transform="translate(0 -77.532)" fill="#fff"/>
      <path id="Path_3" data-name="Path 3" d="M17.266,94.326H2a2.238,2.238,0,0,1-2-2.405V79.939a2.238,2.238,0,0,1,2-2.4H17.266a2.238,2.238,0,0,1,2,2.4V91.921A2.238,2.238,0,0,1,17.266,94.326ZM2,77.575A2.2,2.2,0,0,0,.031,79.939V91.921A2.2,2.2,0,0,0,2,94.287H17.266a2.2,2.2,0,0,0,1.968-2.366V79.939a2.2,2.2,0,0,0-1.968-2.366ZM17.266,92.568H2a.6.6,0,0,1-.539-.649V80.391l6.821,6.5a1.9,1.9,0,0,0,2.706,0l6.819-6.5v11.53a.6.6,0,0,1-.539.648ZM1.493,80.476V91.921A.565.565,0,0,0,2,92.528H17.266a.565.565,0,0,0,.505-.607V80.476l-6.765,6.447a1.929,1.929,0,0,1-2.748,0Zm8.139,5.266a.677.677,0,0,1-.465-.2L2.6,79.291H16.661L10.1,85.546A.677.677,0,0,1,9.632,85.742ZM2.7,79.332l6.486,6.183a.621.621,0,0,0,.888,0l6.486-6.183Z" transform="translate(0 -77.532)" fill="#fff"/>
    </g>
  </g>
</svg>
